<svg xmlns="http://www.w3.org/2000/svg" viewBox="0 0 32 32" width="32" height="32" fill="none">
  <!-- Rounded square background with premium violet gradient -->
  <rect width="32" height="32" rx="7" fill="url(#violetGradient)" />
  
  <!-- Asymmetric Chess Knight silhouette -->
  <path d="M22.5 25c0 .3-.2.5-.5.5H10c-.3 0-.5-.2-.5-.5v-1c0-.3.2-.5.5-.5h12c.3 0 .5.2.5.5v1z" fill="#ffffff" />
  <path d="M21 22.5c0-.3-.2-.5-.5-.5H11.5c-.3 0-.5.2-.5.5v.5c0 .3.2.5.5.5h9c.3 0 .5-.2.5-.5v-.5z" fill="#ffffff" opacity="0.6" />
  
  <!-- Knight body -->
  <path d="M12 21h8c.5 0 .9-.4.9-.9v-.3c0-1.5.8-2.9 2-3.8.4-.3.6-.8.6-1.3V13c0-2-1.5-3.8-3.5-4.2-.8-.2-1.7-.2-2.5 0-2 .4-3.5 2.2-3.5 4.2v1.7c0 .5.2 1 .6 1.3 1.2.9 2 2.3 2 3.8v.3c0 .5.4.9.9.9z" fill="#ffffff" />
  
  <!-- Eye -->
  <circle cx="15.5" cy="11.5" r="1.2" fill="#863bff" />
  
  <defs>
    <linearGradient id="violetGradient" x1="0" y1="0" x2="32" y2="32" gradientUnits="userSpaceOnUse">
      <stop stop-color="#863bff" />
      <stop stop-color="#4f12d6" />
    </linearGradient>
  </defs>
</svg>